<?xml version="1.0" standalone="no"?>
<svg version="1.0" xmlns="http://www.w3.org/2000/svg"
 width="30px" height="30px" viewBox="0 0 494.000000 494.000000"
 preserveAspectRatio="xMidYMid meet">
<metadata>
Created by potrace 1.15, written by Peter Selinger 2001-2017
</metadata>
<g transform="translate(0.000000,494.000000) scale(0.100000,-0.100000)"
fill="#666" stroke="none">
<path d="M770 4925 c-397 -73 -686 -364 -755 -761 -22 -124 -23 -3241 -1
-3374 34 -206 125 -379 274 -522 130 -124 278 -201 460 -238 101 -20 113 -20
1755 -18 l1652 3 80 23 c301 88 526 290 634 572 64 164 61 81 61 1862 0 1598
0 1621 -21 1721 -72 353 -329 626 -679 719 l-85 23 -1650 1 c-1357 2 -1663 0
-1725 -11z m1910 -860 c757 -108 1342 -708 1430 -1467 16 -133 8 -389 -15
-508 -95 -495 -375 -900 -796 -1150 -77 -46 -231 -118 -286 -135 l-23 -6 0
269 c0 206 -4 289 -16 349 -8 43 -16 84 -17 91 -1 9 30 22 93 38 54 14 140 46
200 76 89 44 118 65 191 138 172 170 249 385 251 695 1 193 -26 300 -115 457
l-44 76 4 144 c5 152 -4 215 -47 332 -16 41 -31 63 -54 77 -78 47 -263 2 -470
-116 l-79 -45 -161 21 c-135 18 -194 20 -366 16 -135 -4 -226 -11 -267 -21
l-61 -15 -84 49 c-139 84 -274 129 -382 130 -54 0 -61 -3 -96 -38 -53 -53 -81
-145 -87 -288 -4 -85 -2 -124 11 -167 l16 -56 -35 -55 c-107 -168 -148 -358
-126 -586 35 -351 184 -591 449 -724 123 -62 418 -134 489 -120 53 11 83 48
83 104 0 30 -37 80 -59 80 -48 0 -259 47 -329 73 -207 78 -337 221 -393 434
-27 100 -37 334 -20 425 16 78 68 189 116 246 29 34 36 48 32 70 -23 111 -28
160 -25 252 2 58 7 110 11 116 17 28 195 -39 310 -117 56 -38 64 -41 111 -36
28 3 96 16 151 28 85 19 128 23 285 23 157 0 200 -4 285 -24 178 -41 180 -40
287 26 114 70 222 121 267 126 33 3 35 1 49 -42 20 -63 19 -203 -2 -263 -24
-67 -14 -107 46 -175 98 -114 131 -222 129 -422 -4 -459 -211 -690 -671 -750
-74 -9 -88 -14 -112 -41 -39 -41 -38 -92 2 -141 17 -21 41 -59 53 -85 21 -46
22 -64 27 -383 3 -184 9 -341 13 -348 5 -8 4 -19 -3 -27 -19 -23 -752 -22
-770 0 -10 12 -10 21 -1 41 7 17 11 121 11 327 0 283 -1 304 -20 334 -24 40
-56 49 -127 34 -88 -17 -202 -14 -276 9 -78 24 -157 90 -190 159 -30 61 -73
87 -122 71 -44 -14 -75 -53 -75 -94 0 -82 129 -241 245 -303 87 -45 156 -63
273 -70 l102 -6 1 -101 c0 -56 4 -139 8 -186 4 -47 7 -86 5 -88 -4 -6 -161 58
-239 99 -312 159 -574 431 -730 754 -300 624 -203 1338 253 1859 259 296 652
506 1042 555 108 14 348 12 460 -4z"/>
</g>
</svg>
