<?xml version="1.0" standalone="no"?>
<svg version="1.0" xmlns="http://www.w3.org/2000/svg"
 width="30px" height="30px" viewBox="0 0 494.000000 494.000000"
 preserveAspectRatio="xMidYMid meet">
<metadata>
Created by potrace 1.15, written by Peter Selinger 2001-2017
</metadata>
<g transform="translate(0.000000,494.000000) scale(0.100000,-0.100000)"
fill="#666" stroke="none">
<path d="M770 4925 c-397 -73 -686 -364 -755 -761 -22 -124 -23 -3241 -1
-3374 34 -206 125 -379 274 -522 130 -124 278 -201 460 -238 101 -20 113 -20
1755 -18 l1652 3 80 23 c301 88 526 290 634 572 64 164 61 81 61 1862 0 1598
0 1621 -21 1721 -72 353 -329 626 -679 719 l-85 23 -1650 1 c-1357 2 -1663 0
-1725 -11z m532 -755 c109 -34 179 -94 231 -200 43 -87 50 -205 17 -292 -40
-108 -118 -183 -239 -229 -73 -28 -220 -31 -302 -6 -159 49 -259 177 -267 340
-6 123 19 197 96 280 49 52 117 92 192 113 72 20 198 17 272 -6z m2313 -1035
c335 -99 533 -364 584 -780 7 -57 11 -340 11 -777 l0 -688 -369 0 -369 0 -5
658 c-5 715 -6 733 -63 851 -71 145 -221 213 -393 177 -139 -29 -223 -98 -290
-236 l-36 -75 -3 -687 -3 -688 -370 0 -369 0 0 1115 0 1115 370 0 370 0 1
-157 c0 -152 1 -157 17 -133 118 173 288 289 479 325 122 23 324 14 438 -20z
m-2090 -1130 l0 -1110 -372 -3 -373 -2 0 1115 0 1115 373 -2 372 -3 0 -1110z"/>
</g>
</svg>
